<svg xmlns="http://www.w3.org/2000/svg" version="1.1" xmlns:xlink="http://www.w3.org/1999/xlink" xmlns:svgjs="http://svgjs.dev/svgjs" width="2000" height="1000" preserveAspectRatio="none" viewBox="0 0 2000 1000"><g mask="url(&quot;#SvgjsMask1029&quot;)" fill="none"><path d="M-87.94 629.03C81.06 629.57 244.22 754.03 576.39 754.03 908.55 754.03 900.03 627.12 1240.71 629.03 1581.4 630.94 1708.29 1039.07 1905.04 1057.07" stroke="rgba(255, 110, 0, 0.58)" stroke-width="2"></path><path d="M-353.38 113.41C-211.84 114.19-77.27 238.41 198.84 238.41 474.95 238.41 414.05 74.34 751.05 113.41 1088.06 152.48 1068.53 900.01 1303.27 1026.97" stroke="rgba(255, 110, 0, 0.58)" stroke-width="2"></path><path d="M-236.27 238.88C-38.05 251.99 38.66 584.74 456.07 628.88 873.48 673.02 928.4 1154.9 1148.41 1188.39" stroke="rgba(255, 110, 0, 0.58)" stroke-width="2"></path><path d="M-258.72 216.66C-89.74 217.2 73.41 341.66 405.54 341.66 737.66 341.66 690.96 192.69 1069.79 216.66 1448.62 240.63 1479.3 982.37 1734.05 1076.82" stroke="rgba(255, 110, 0, 0.58)" stroke-width="2"></path><path d="M-258.13 788.23C26.09 779.44 387.58 346.05 790.76 348.23 1193.95 350.41 1100.24 1040.57 1315.21 1142.66" stroke="rgba(255, 110, 0, 0.58)" stroke-width="2"></path></g><defs><mask id="SvgjsMask1029"><rect width="2000" height="1000" fill="#ffffff"></rect></mask></defs></svg>