<svg xmlns="http://www.w3.org/2000/svg" version="1.1" xmlns:xlink="http://www.w3.org/1999/xlink" xmlns:svgjs="http://svgjs.dev/svgjs" width="1440" height="560" preserveAspectRatio="none" viewBox="0 0 1440 560"><g mask="url(&quot;#SvgjsMask1016&quot;)" fill="none"><path d="M298.21 636.96C450.54 585.23 475.07 150.78 704.39 137.87 933.7 124.96 907.47 207.87 1110.56 207.87 1313.65 207.87 1413.7 138.13 1516.74 137.87" stroke="rgba(255, 98, 0, 0.58)" stroke-width="2"></path><path d="M931.87 666.76C1041.06 596.12 979.54 212.45 1176.04 207.45 1372.54 202.45 1534.83 378.49 1664.37 381.05" stroke="rgba(255, 98, 0, 0.58)" stroke-width="2"></path><path d="M197.25 636.42C322.1 631.64 422.16 429.96 652.19 429.58 882.22 429.2 879.66 499.58 1107.14 499.58 1334.61 499.58 1447.01 429.78 1562.08 429.58" stroke="rgba(255, 98, 0, 0.58)" stroke-width="2"></path><path d="M819.7 561.35C956.68 527.3 1008.18 158.15 1212.59 155.91 1417 153.67 1497.6 330.95 1605.48 335.11" stroke="rgba(255, 98, 0, 0.58)" stroke-width="2"></path><path d="M498.36 605.71C653.31 550.44 674.33 103.72 906.43 89.47 1138.54 75.22 1110.47 159.47 1314.51 159.47 1518.54 159.47 1619.07 89.72 1722.58 89.47" stroke="rgba(255, 98, 0, 0.58)" stroke-width="2"></path></g><defs><mask id="SvgjsMask1016"><rect width="1440" height="560" fill="#ffffff"></rect></mask></defs></svg>